# xmcd
#
# Track frame offsets:
#	150
#	12420
#	25670
#	39187
#	52639
#	66720
#	76607
#	97505
#	114115
#	127302
#	143667
#	152465
#	163595
#	175887
#	187797
#	199020
#
# Disc length: 2793
#
# Revision: 1
# Processed by: cddbd v1.5.1PL0 Copyright (c) Steve Scherf et al.
# Submitted via: ExactAudioCopy v0.90b4
# Normalized: r0:DSETVAR1,TDELIM( - )
#
DISCID=b40ae710
DTITLE=Various Artist - Soul Greats - Disc 2
DYEAR=1997
DGENRE=Soul
TTITLE0=Ike and Tina Turner - Nutbush City Limits
TTITLE1=Jackie Wilson - (Your Love Keeps Lifting Me) Higher And Higher
TTITLE2=King Curtis - Soul Serenade
TTITLE3=The Impressions - It's All Right
TTITLE4=Percy Sledge - Warm And Tender Love
TTITLE5=James Brown - Cold Sweat (live)
TTITLE6=Gladys Knight and The Pips - Midnight Train To Georgia
TTITLE7=The Chi-Lites - (For God's Sake) Give More Power To The People
TTITLE8=The Three Degrees - When Will I See You Again
TTITLE9=The Righteous Brothers - You've Lost That Lovin' Feelin'
TTITLE10=The Isley Brothers - I'm Laughing To Keep From Crying
TTITLE11=Jackie Wilson - To Be Loved
TTITLE12=J.J. Jackson - But It's Alright
TTITLE13=Betty Everett - No Place To Hide
TTITLE14=Solomon Burke - If You Need Me
TTITLE15=The Tymes - So Much In Love
EXTD=
EXTT0=
EXTT1=
EXTT2=
EXTT3=
EXTT4=
EXTT5=
EXTT6=
EXTT7=
EXTT8=
EXTT9=
EXTT10=
EXTT11=
EXTT12=
EXTT13=
EXTT14=
EXTT15=
PLAYORDER=
